# AST/ASF file generated using VICON BodyLanguage
# -----------------------------------------------
:version 1.10
:name VICON
:units
  mass 1.0
  length 0.45
  angle deg
:documentation
   .ast/.asf automatically generated from VICON data using
   VICON BodyBuilder and BodyLanguage model FoxedUp or BRILLIANT.MOD
:root
   order TX TY TZ RX RY RZ
   axis XYZ
   position 0 0 0  
   orientation 0 0 0 
:bonedata
  begin
     id 1 
     name lhipjoint
     direction 0.645893 -0.654526 0.392961 
     length 2.38111 
     axis 0 0 0  XYZ
  end
  begin
     id 2 
     name lfemur
     direction 0.34202 -0.939693 0  
     length 6.6822  
     axis 0 0 20  XYZ
    dof rx ry rz
    limits (-160.0 20.0)
           (-70.0 70.0)
           (-60.0 70.0)
  end
  begin
     id 3 
     name ltibia
     direction 0.34202 -0.939693 0   
     length 6.93904   
     axis 0 0 20   XYZ
    dof rx
    limits (-10.0 170.0)
  end
  begin
     id 4 
     name lfoot
     direction 0.0694967 -0.190941 0.979138   
     length 2.13616   
     axis -90 7.62852e-016 20   XYZ
    dof rx rz
    limits (-45.0 90.0)
           (-70.0 20.0)
  end
  begin
     id 5 
     name ltoes
     direction 1.535e-011 -4.2202e-011 1   
     length 1.07536   
     axis -90 7.62852e-016 20   XYZ
    dof rx
    limits (-90.0 20.0)
  end
  begin
     id 6 
     name rhipjoint
     direction -0.700219 -0.612087 0.367481   
     length 2.54621  
     axis 0 0 0  XYZ 
  end
  begin
     id 7 
     name rfemur
     direction -0.34202 -0.939693 0   
     length 6.55353   
     axis 0 0 -20   XYZ
    dof rx ry rz
    limits (-160.0 20.0)
           (-70.0 70.0)
           (-70.0 60.0)
  end
  begin
     id 8 
     name rtibia
     direction -0.34202 -0.939693 0   
     length 6.8736   
     axis 0 0 -20   XYZ
    dof rx
    limits (-10.0 170.0)
 end
 begin
     id 9 
     name rfoot
     direction -0.0679995 -0.186827 0.980037   
     length 2.1218  
     axis -90 -7.62852e-016 -20   XYZ
    dof rx rz
    limits (-45.0 90.0)
           (-20.0 70.0)
  end
  begin
     id 10 
     name rtoes
     direction -1.53589e-011 -4.21772e-011 1   
     length 1.06864   
     axis -90 -7.62852e-016 -20   XYZ
    dof rx
    limits (-90.0 20.0)
  end
  begin
     id 11 
     name lowerback
     direction -0.0416607 0.996347 -0.0745409   
     length 2.12205   
     axis 0 0 0   XYZ
    dof rx ry rz
    limits (-20.0 45.0)
           (-30.0 30.0)
           (-30.0 30.0)
  end
  begin
     id 12 
     name upperback
     direction -0.000153993 0.999276 -0.0380568   
     length 2.12759   
     axis 0 0 0   XYZ
    dof rx ry rz
    limits (-20.0 45.0)
           (-30.0 30.0)
           (-30.0 30.0)
  end
  begin
     id 13 
     name thorax
     direction 0.0187671 0.999821 -0.00241421   
     length 2.13704   
     axis 0 0 0   XYZ
    dof rx ry rz
    limits (-20.0 45.0)
           (-30.0 30.0)
           (-30.0 30.0)
  end
  begin
     id 14 
     name lowerneck
     direction 0.0268157 0.964865 0.261374   
     length 1.65253   
     axis 0 0 0   XYZ
    dof rx ry rz
    limits (-20.0 45.0)
           (-30.0 30.0)
           (-30.0 30.0)
  end
  begin
     id 15 
     name upperneck
     direction 0.00263774 0.939908 -0.341418   
     length 1.72375   
     axis 0 0 0   XYZ
    dof rx ry rz
    limits (-20.0 45.0)
           (-30.0 30.0)
           (-30.0 30.0)
  end
  begin
     id 16
     name head
     direction -0.00526001 0.989001 -0.147818  
     length 1.74878  
     axis 0 0 0   XYZ
    dof rx ry rz
    limits (-20.0 45.0)
           (-30.0 30.0)
           (-30.0 30.0)
  end
  begin
     id 17 
     name lclavicle
     direction 0.881214 0.461162 -0.103884  
     length 3.25108  
     axis 0 0 0   XYZ
    dof ry rz
    limits (-20.0 10.0)
           (0.0 20.0)
  end
  begin
     id 18 
     name lhumerus
     direction 1 -4.4899e-011 3.38092e-027   
     length 4.87408   
     axis 180 -30 -90   XYZ
    dof rx ry rz
    limits (-60.0 90.0)
           (-90.0 90.0)
           (-90.0 90.0)
  end
  begin
     id 19
     name lradius
     direction 1 -4.48931e-011 9.96288e-027   
     length 2.76729   
     axis 180 -30 -90   XYZ
    dof rx
    limits (-10.0 170.0)
  end
  begin
     id 20
     name lwrist
     direction 1 -4.4896e-011 1.50617e-026   
     length 1.38364   
     axis -9.31234e-015 90 90   XYZ
    dof ry
    limits (-180.0 0.0)
 end
  begin
     id 21 
     name lhand
     direction 1 -4.49038e-011 3.01286e-026   
     length 0.98922   
     axis -1.92217e-014 90 90   XYZ
    dof rx rz
    limits (-90.0 90.0)
           (-45.0 45.0)
  end
  begin
     id 22 
     name lfingers
     direction 1 -4.49051e-011 6.02588e-026   
     length 0.797535   
     axis -3.84436e-014 90 90   XYZ
    dof rx
    limits (0.0 90.0)
  end
  begin
     id 23
     name lthumb
     direction 0.707107 -6.34901e-011 0.707107   
     length 1.14511   
     axis -90 45 2.19363e-014   XYZ
    dof rx rz
    limits (-45.0 45.0)
           (-45.0 45.0)
  end
  begin
     id 24 
     name rclavicle
     direction -0.893894 0.441652 -0.0767889   
     length 3.29361  
     axis 0 0 0   XYZ 
    dof ry rz
    limits (-10.0 20.0)
           (-20.0 0.0)
  end
  begin
     id 25 
     name rhumerus
     direction -1 -4.48945e-011 8.0491e-028  
     length 4.71404   
     axis 180 30 90   XYZ
    dof rx ry rz
    limits (-90.0 60.0)
           (-90.0 90.0)
           (-90.0 90.0)
  end
  begin
     id 26 
     name rradius
     direction -1 -4.48986e-011 9.27795e-027   
     length 2.83468   
     axis 180 30 90   XYZ
    dof rx
    limits (-10.0 170.0)
  end
  begin
     id 27 
     name rwrist
     direction -1 -4.49029e-011 1.5064e-026   
     length 1.41734   
     axis -9.31234e-015 -90 -90   XYZ
    dof ry
    limits (-180.0 0.0)
  end
  begin
     id 28
     name rhand
     direction -1 -4.48857e-011 3.01165e-026   
     length 0.868195   
     axis -1.92217e-014 -90 -90   XYZ
    dof rx rz
    limits (-90.0 90.0)
           (-45.0 45.0)
  end
  begin
     id 29
     name rfingers
     direction -1 -4.49048e-011 6.02585e-026   
     length 0.699961   
     axis -3.84436e-014 -90 -90   XYZ
    dof rx
    limits (0.0 90.0)
  end
  begin
     id 30
     name rthumb
     direction -0.707107 -6.34854e-011 0.707107   
     length 1.00501   
     axis -90 -45 -2.19363e-014   XYZ
    dof rx rz
    limits (-45.0 45.0)
           (-45.0 45.0)
  end
:hierarchy
  begin
    root lhipjoint rhipjoint lowerback
    lhipjoint lfemur
    lfemur ltibia
    ltibia lfoot
    lfoot ltoes
    rhipjoint rfemur
    rfemur rtibia
    rtibia rfoot
    rfoot rtoes
    lowerback upperback
    upperback thorax
    thorax lowerneck lclavicle rclavicle
    lowerneck upperneck
    upperneck head
    lclavicle lhumerus
    lhumerus lradius
    lradius lwrist
    lwrist lhand lthumb
    lhand lfingers
    rclavicle rhumerus
    rhumerus rradius
    rradius rwrist
    rwrist rhand rthumb
    rhand rfingers
  end

#!OML:ASF H:\ManfredObstacles\Project 1\Capture day 2\Session 1\male.ASF
:FULLY-SPECIFIED
:DEGREES
34
root 1.57901 15.4488 26.6229 -179.64 -6.66228 183.913
lowerback 4.47385 3.29561 -0.694073
upperback 4.20845 4.11108 -1.76398
thorax 1.90547 1.94455 -1.5373
lowerneck -30.599 -1.09699 0.560312
upperneck 39.9529 -5.54953 1.67852
head 21.4401 -2.42852 -0.985675
rclavicle -3.47873e-014 7.95139e-016
rhumerus -33.5069 3.85868 -90.6002
rradius 55.8644
rwrist 14.9046
rhand -9.96757 -1.63392
rfingers 7.12502
rthumb 16.0149 -30.992
lclavicle -3.47873e-014 7.95139e-016
lhumerus -40.5456 -10.2586 79.4347
lradius 41.1668
lwrist -24.4909
lhand -7.38409 8.4472
lfingers 7.12502
lthumb 18.5014 37.5874
rfemur -5.80997 -2.77727 30.5029
rtibia 36.3768
rfoot -10.8925 -23.4994
rtoes -21.9162
lfemur -40.6804 -3.36611 -16.9689
ltibia 40.8112
lfoot 13.5545 11.0892
ltoes -10.0054
35
root 1.57342 15.4607 26.4538 -179.527 -6.92606 183.987
lowerback 4.34701 3.39602 -0.780957
upperback 4.2468 4.24414 -1.79507
thorax 2.01491 2.00834 -1.51555
lowerneck -30.6749 -1.14006 0.56638
upperneck 40.0326 -5.68251 1.76863
head 21.5255 -2.45838 -0.978521
rclavicle -7.7526e-015 3.89618e-014
rhumerus -33.0854 4.05442 -90.6456
rradius 55.705
rwrist 14.7618
rhand -9.78636 -1.70441
rfingers 7.12502
rthumb 16.1894 -31.0484
lclavicle -7.7526e-015 3.89618e-014
lhumerus -40.2829 -10.1341 79.1328
lradius 40.6316
lwrist -24.4582
lhand -7.15706 8.62242
lfingers 7.12502
lthumb 18.7198 37.7417
rfemur -5.24102 -3.25624 30.5695
rtibia 36.233
rfoot -10.5849 -23.3291
rtoes -22.3758
lfemur -40.3838 -3.37227 -17.0914
ltibia 38.3878
lfoot 14.3183 10.6857
ltoes -10.4947
36
root 1.56668 15.4662 26.2848 -179.424 -7.18337 184.072
lowerback 4.20078 3.4883 -0.88568
upperback 4.29813 4.36673 -1.799
thorax 2.14461 2.06583 -1.45377
lowerneck -30.7135 -1.19882 0.523356
upperneck 40.0851 -5.81234 1.87106
head 21.5842 -2.49401 -0.954019
rclavicle -4.47266e-014 4.69132e-014
rhumerus -32.667 4.27942 -90.6367
rradius 55.4933
rwrist 14.7983
rhand -9.61497 -1.64908
rfingers 7.12502
rthumb 16.3544 -30.9795
lclavicle -4.47266e-014 4.69132e-014
lhumerus -40.0067 -9.94035 78.8601
lradius 40.1484
lwrist -24.516
lhand -6.93602 8.75456
lfingers 7.12502
lthumb 18.9324 37.8532
rfemur -4.74977 -3.71707 30.6383
rtibia 36.2596
rfoot -10.2864 -23.1467
rtoes -22.889
lfemur -40.0829 -3.36149 -17.2191
ltibia 36.3283
lfoot 15.2354 10.4018
ltoes -10.9562
37
root 1.55889 15.4645 26.1163 -179.336 -7.444 184.169
lowerback 4.05714 3.56643 -0.995956
upperback 4.35866 4.47036 -1.78674
thorax 2.27991 2.11306 -1.37134
lowerneck -30.7103 -1.24731 0.527313
upperneck 40.0789 -5.91535 1.93253
head 21.5848 -2.51818 -0.948622
rclavicle -2.78299e-015 8.74653e-015
rhumerus -32.2432 4.53993 -90.604
rradius 55.2192
rwrist 14.9896
rhand -9.47455 -1.50567
rfingers 7.12502
rthumb 16.4896 -30.8249
lclavicle -2.78299e-015 8.74653e-015
lhumerus -39.7206 -9.68321 78.6035
lradius 39.71
lwrist -24.6562
lhand -6.74783 8.81904
lfingers 7.12502
lthumb 19.1133 37.8999
rfemur -4.34646 -4.14722 30.71
rtibia 36.4875
rfoot -9.99944 -22.9659
rtoes -23.4758
lfemur -39.7938 -3.3182 -17.3664
ltibia 34.675
lfoot 16.3112 10.134
ltoes -11.2066
38
root 1.55025 15.4553 25.9487 -179.264 -7.69396 184.28
lowerback 3.95177 3.63133 -1.08884
upperback 4.40028 4.55671 -1.77597
thorax 2.37515 2.15248 -1.30244
lowerneck -30.6415 -1.29727 0.525759
upperneck 40.0652 -6.03137 2.01127
head 21.5631 -2.54925 -0.936071
rclavicle 1.82882e-014 2.94201e-014
rhumerus -31.8521 4.816 -90.5838
rradius 54.8875
rwrist 15.3534
rhand -9.38175 -1.3303
rfingers 7.12502
rthumb 16.5789 -30.6421
lclavicle 1.82882e-014 2.94201e-014
lhumerus -39.4685 -9.37797 78.3379
lradius 39.3133
lwrist -24.9012
lhand -6.57891 8.8099
lfingers 7.12502
lthumb 19.2758 37.8746
rfemur -4.05343 -4.52198 30.793
rtibia 36.9523
rfoot -9.71422 -22.7939
rtoes -24.0893
lfemur -39.5286 -3.16838 -17.5618
ltibia 33.4628
lfoot 17.4514 9.85923
ltoes -10.8861
39
root 1.54086 15.4386 25.7822 -179.211 -7.921 184.395
lowerback 3.84676 3.68086 -1.20565
upperback 4.47149 4.62062 -1.73883
thorax 2.49608 2.17841 -1.19179
lowerneck -30.6116 -1.34203 0.506123
upperneck 40.0628 -6.12296 2.07622
head 21.5599 -2.5751 -0.922041
rclavicle -5.76476e-015 1.11319e-014
rhumerus -31.395 5.17125 -90.5342
rradius 54.4781
rwrist 15.8122
rhand -9.33375 -1.15199
rfingers 7.12502
rthumb 16.6252 -30.4599
lclavicle -5.76476e-015 1.11319e-014
lhumerus -39.1877 -8.95801 78.0945
lradius 38.9405
lwrist -25.2517
lhand -6.4539 8.74412
lfingers 7.12502
lthumb 19.396 37.7968
rfemur -3.88233 -4.84043 30.873
rtibia 37.6886
rfoot -9.42352 -22.6202
rtoes -24.7469
lfemur -39.2855 -2.86169 -17.8428
ltibia 32.7144
lfoot 18.4502 9.5852
ltoes -9.93883
40
root 1.53047 15.414 25.6174 -179.177 -8.14132 184.503
lowerback 3.77623 3.70786 -1.32862
upperback 4.54895 4.6526 -1.69522
thorax 2.60254 2.18743 -1.07258
lowerneck -30.6245 -1.37307 0.516016
upperneck 40.059 -6.18519 2.09975
head 21.5633 -2.58962 -0.927266
rclavicle 3.43897e-014 2.22639e-014
rhumerus -30.9203 5.57152 -90.4811
rradius 54.0251
rwrist 16.3739
rhand -9.31006 -1.01705
rfingers 7.12502
rthumb 16.648 -30.3231
lclavicle 3.43897e-014 2.22639e-014
lhumerus -38.9151 -8.47583 77.8708
lradius 38.5963
lwrist -25.6557
lhand -6.38345 8.6461
lfingers 7.12502
lthumb 19.4637 37.6919
rfemur -3.85352 -5.13755 30.9349
rtibia 38.7277
rfoot -9.13645 -22.4241
rtoes -25.4794
lfemur -39.0694 -2.39442 -18.2325
ltibia 32.4321
lfoot 19.0637 9.39679
ltoes -8.32201
41
root 1.51901 15.3811 25.4554 -179.16 -8.34237 184.602
lowerback 3.75739 3.71911 -1.45399
upperback 4.62869 4.66092 -1.649
thorax 2.68177 2.18386 -0.952375
lowerneck -30.6853 -1.40073 0.470944
upperneck 40.0971 -6.23926 2.15667
head 21.6149 -2.60473 -0.906094
rclavicle -3.06128e-014 1.43125e-014
rhumerus -30.4409 6.01199 -90.4255
rradius 53.5554
rwrist 16.9361
rhand -9.30297 -0.943033
rfingers 7.12502
rthumb 16.6548 -30.2485
lclavicle -3.06128e-014 1.43125e-014
lhumerus -38.6591 -7.95372 77.674
lradius 38.2833
lwrist -26.0833
lhand -6.36472 8.55353
lfingers 7.12502
lthumb 19.4817 37.5975
rfemur -3.98218 -5.42866 30.9694
rtibia 40.0888
rfoot -8.84516 -22.1811
rtoes -26.2526
lfemur -38.8703 -1.79019 -18.7123
ltibia 32.582
lfoot 19.1013 9.39271
ltoes -6.17259
42
root 1.50643 15.3404 25.2972 -179.16 -8.54539 184.688
lowerback 3.81921 3.72179 -1.547
upperback 4.69277 4.65501 -1.63305
thorax 2.70481 2.17447 -0.886676
lowerneck -30.7353 -1.43096 0.433051
upperneck 40.1454 -6.31526 2.22712
head 21.6721 -2.62604 -0.885522
rclavicle 1.07344e-014 3.33958e-014
rhumerus -29.9949 6.40435 -90.4029
rradius 53.0866
rwrist 17.4978
rhand -9.31413 -0.924644
rfingers 7.12502
rthumb 16.644 -30.231
lclavicle 1.07344e-014 3.33958e-014
lhumerus -38.4187 -7.50023 77.4808
lradius 37.9818
lwrist -26.5103
lhand -6.40905 8.45027
lfingers 7.12502
lthumb 19.4391 37.4986
rfemur -4.28314 -5.75774 30.9686
rtibia 41.7785
rfoot -8.50719 -21.8716
rtoes -27.0834
lfemur -38.6979 -1.14992 -19.233
ltibia 33.0997
lfoot 18.5381 9.55567
ltoes -3.76391
43
root 1.49295 15.2938 25.1435 -179.168 -8.77373 184.761
lowerback 3.97823 3.70452 -1.59793
upperback 4.73565 4.61924 -1.6528
thorax 2.65788 2.15216 -0.887321
lowerneck -30.7963 -1.45674 0.397
upperneck 40.1917 -6.40077 2.32761
head 21.7342 -2.64591 -0.852363
rclavicle -8.3092e-014 -1.43125e-014
rhumerus -29.5918 6.7436 -90.4233
rradius 52.6296
rwrist 18.0703
rhand -9.33315 -0.93075
rfingers 7.12502
rthumb 16.6257 -30.2387
lclavicle -8.3092e-014 -1.43125e-014
lhumerus -38.2007 -7.12024 77.288
lradius 37.7097
lwrist -26.8713
lhand -6.48858 8.37794
lfingers 7.12502
lthumb 19.3626 37.4339
rfemur -4.77038 -6.15783 30.9281
rtibia 43.7857
rfoot -8.07979 -21.4765
rtoes -27.9302
lfemur -38.5677 -0.605314 -19.7285
ltibia 33.8948
lfoot 17.5084 9.95561
ltoes -1.43295
44
root 1.4781 15.2427 24.996 -179.17 -9.03045 184.827
lowerback 4.20462 3.66858 -1.61611
upperback 4.77079 4.55612 -1.68497
thorax 2.56885 2.11737 -0.922678
lowerneck -30.8368 -1.5021 0.291047
upperneck 40.2471 -6.51052 2.48057
head 21.8053 -2.67997 -0.786511
rclavicle -3.10104e-014 1.59028e-014
rhumerus -29.2111 7.04963 -90.4486
rradius 52.1711
rwrist 18.6966
rhand -9.39077 -0.952918
rfingers 7.12502
rthumb 16.5703 -30.2655
lclavicle -3.10104e-014 1.59028e-014
lhumerus -37.9707 -6.76667 77.1186
lradius 37.4456
lwrist -27.21
lhand -6.58074 8.32897
lfingers 7.12502
lthumb 19.274 37.3938
rfemur -5.46963 -6.63102 30.8499
rtibia 46.0913
rfoot -7.49855 -20.9755
rtoes -28.756
lfemur -38.5195 -0.240179 -20.1521
ltibia 34.879
lfoot 16.239 10.6276
ltoes 0.664348
